<!DOCTYPE svg PUBLIC "-//W3C//DTD SVG 1.1//EN" "http://www.w3.org/Graphics/SVG/1.1/DTD/svg11.dtd">
<!-- Uploaded to: SVG Repo, www.svgrepo.com, Transformed by: SVG Repo Mixer Tools -->
<svg fill="#ffffff" width="800px" height="800px" viewBox="0 0 256 256" id="Flat" xmlns="http://www.w3.org/2000/svg" stroke="#ffffff">
<g id="SVGRepo_bgCarrier" stroke-width="0"/>
<g id="SVGRepo_tracerCarrier" stroke-linecap="round" stroke-linejoin="round"/>
<g id="SVGRepo_iconCarrier"> <path d="M200,36H161.91553a43.94572,43.94572,0,0,0-67.83106,0H56A12.01343,12.01343,0,0,0,44,48V216a12.01343,12.01343,0,0,0,12,12H200a12.01343,12.01343,0,0,0,12-12V48A12.01343,12.01343,0,0,0,200,36Zm-72-8a36.04061,36.04061,0,0,1,36,36v4H92V64A36.04061,36.04061,0,0,1,128,28Zm76,188a4.00427,4.00427,0,0,1-4,4H56a4.00427,4.00427,0,0,1-4-4V48a4.00427,4.00427,0,0,1,4-4H88.82812A43.71549,43.71549,0,0,0,84,64v8a4.0002,4.0002,0,0,0,4,4h80a4.0002,4.0002,0,0,0,4-4V64a43.71549,43.71549,0,0,0-4.82812-20H200a4.00427,4.00427,0,0,1,4,4Z"/> </g>
</svg>